<svg width="186" height="34" viewBox="0 0 186 34" fill="none"
  xmlns="http://www.w3.org/2000/svg">
  <g clip-path="url(#clip0_20026_617)">
    <path d="M53.6581 3.7467H62.9208L70.4138 30.2666H65.4293L63.919 24.8095H52.6599L51.1496 30.2666H46.165L53.6581 3.7467ZM62.668 20.191L58.2732 4.3523L53.9174 20.191H62.6615H62.668Z" fill="#195b7d"></path>
    <path d="M77.2263 3.7467H72.6112V30.2666H77.2263V3.7467Z" fill="#195b7d"></path>
    <path d="M85.5751 3.7467H80.96V30.2666H85.5751V3.7467Z" fill="#195b7d"></path>
    <path d="M88.2325 20.4572C88.2325 14.5077 92.5495 10.1487 98.4934 10.1487C104.437 10.1487 108.754 14.5077 108.754 20.4572C108.754 26.4067 104.178 30.7657 98.4934 30.7657C92.8088 30.7657 88.2325 26.4466 88.2325 20.4572ZM98.4934 26.44C101.631 26.44 104.068 24.0908 104.068 20.4506C104.068 16.8103 101.631 14.4611 98.4934 14.4611C95.3561 14.4611 92.919 16.9235 92.919 20.4506C92.919 23.9777 95.3561 26.44 98.4934 26.44Z" fill="#195b7d"></path>
    <path d="M110.193 20.4572C110.193 14.5476 114.439 10.1487 120.344 10.1487C124.661 10.1487 127.947 12.3449 129.386 16.0982L125.4 18.2212C124.732 16.0583 122.814 14.4678 120.344 14.4678C117.207 14.4678 114.88 16.9301 114.88 20.4572C114.88 23.9843 117.239 26.4467 120.344 26.4467C122.671 26.4467 124.739 25.1223 125.51 22.6201L129.568 24.5899C128.168 28.5296 124.622 30.7657 120.344 30.7657C114.4 30.7657 110.193 26.4067 110.193 20.4572Z" fill="#195b7d"></path>
    <path d="M130.689 20.4572C130.689 14.5077 135.006 10.1487 140.95 10.1487C146.894 10.1487 151.211 14.5077 151.211 20.4572C151.211 26.4067 146.635 30.7657 140.95 30.7657C135.265 30.7657 130.689 26.4466 130.689 20.4572ZM140.95 26.44C144.087 26.44 146.524 24.0908 146.524 20.4506C146.524 16.8103 144.087 14.4611 140.95 14.4611C137.813 14.4611 135.376 16.9235 135.376 20.4506C135.376 23.9777 137.813 26.44 140.95 26.44Z" fill="#195b7d"></path>
    <path d="M153.927 10.6412H158.503V18.3676C158.652 12.7575 161.679 10.4083 165.328 10.4083V15.446H162.969C160.052 15.446 158.542 17.4891 158.542 19.9914V30.2599H153.927V10.6412Z" fill="#195b7d"></path>
    <path d="M166.268 20.3774C166.268 14.4678 170.365 10.1487 176.121 10.1487C181.877 10.1487 185.494 14.6941 185.494 19.6586C185.494 20.6835 185.383 21.7017 185.273 22.274H170.845C171.506 25.0757 173.612 26.633 176.231 26.633C178.299 26.633 180.217 25.5349 181.028 24.2106L184.385 26.5598C182.875 28.9822 179.99 30.7657 176.011 30.7657C170.546 30.7657 166.268 26.7861 166.268 20.384M181.034 18.4807C180.885 16.2447 179.005 14.1617 176.127 14.1617C173.431 14.1617 171.512 15.9053 170.89 18.4807H181.041H181.034Z" fill="#195b7d"></path>
    <path d="M3.28085 0L9.93776 7.31376H24.347V26.7927H9.80164C8.47285 26.7927 7.82466 25.1223 8.79695 24.184L17.5734 15.7589L12.712 10.415L3.07343 19.6653C-2.27414 24.7962 1.26498 34 8.58305 34H31.4706V0H3.28085Z" fill="#FB471F"></path>
  </g>
  <defs>
    <clipPath id="clip0_20026_617">
      <rect width="185" height="34" fill="white" transform="translate(0.5)"></rect>
    </clipPath>
  </defs>
</svg>